<svg width="48" height="48" viewBox="0 0 48 48" fill="none" xmlns="http://www.w3.org/2000/svg">
<g clip-path="url(#clip0_425_1291)">
<path d="M24 48C37.2548 48 48 37.2548 48 24C48 10.7452 37.2548 0 24 0C10.7452 0 0 10.7452 0 24C0 37.2548 10.7452 48 24 48Z" fill="#DD2E44"/>
<path d="M24 42C33.9411 42 42 33.9411 42 24C42 14.0589 33.9411 6 24 6C14.0589 6 6 14.0589 6 24C6 33.9411 14.0589 42 24 42Z" fill="white"/>
<path d="M24.0003 37.3332C31.3641 37.3332 37.3337 31.3636 37.3337 23.9998C37.3337 16.636 31.3641 10.6665 24.0003 10.6665C16.6365 10.6665 10.667 16.636 10.667 23.9998C10.667 31.3636 16.6365 37.3332 24.0003 37.3332Z" fill="#DD2E44"/>
<path d="M24 32C28.4183 32 32 28.4183 32 24C32 19.5817 28.4183 16 24 16C19.5817 16 16 19.5817 16 24C16 28.4183 19.5817 32 24 32Z" fill="white"/>
<path d="M24 28C26.2091 28 28 26.2091 28 24C28 21.7909 26.2091 20 24 20C21.7909 20 20 21.7909 20 24C20 26.2091 21.7909 28 24 28Z" fill="#DD2E44"/>
<path opacity="0.2" d="M24.3198 24.376L41.8451 40.048C41.8451 40.048 38.3158 44.5493 31.3251 46.86L23.4385 24.56L24.3198 24.376Z" fill="black"/>
<path d="M24.3922 25.3332C24.1294 25.3341 23.8722 25.2568 23.6534 25.1111C23.4346 24.9655 23.2641 24.7581 23.1634 24.5152C23.0628 24.2724 23.0367 24.0052 23.0883 23.7474C23.14 23.4897 23.2671 23.2532 23.4535 23.0679L24.2042 22.3172C24.453 22.0683 24.7905 21.9283 25.1424 21.9282C25.4943 21.9281 25.8319 22.0678 26.0809 22.3166C26.3298 22.5653 26.4698 22.9028 26.4699 23.2548C26.47 23.6067 26.3303 23.9443 26.0815 24.1932L25.3295 24.9439C25.0806 25.1922 24.7438 25.3321 24.3922 25.3332Z" fill="#FFAC33"/>
<path d="M32.021 9.30775C31.4837 12.0798 32.021 15.5624 32.021 15.5624L41.4264 5.71175C41.8144 3.77309 40.7224 0.469086 39.1357 0.0610859C37.549 -0.346914 33.697 1.13175 32.021 9.30775ZM38.6917 15.9784C35.9197 16.5158 32.437 15.9784 32.437 15.9784L42.2877 6.57309C44.2264 6.18509 47.5304 7.27709 47.9384 8.86375C48.3464 10.4504 46.8677 14.3024 38.6917 15.9784Z" fill="#55ACEE"/>
<path d="M43.7304 5.98001L28.2344 23.4493C27.7517 23.932 26.0037 24.6253 24.8877 23.5107C23.7717 22.396 24.3291 20.7373 24.8117 20.2533L42.4197 4.66801C42.4197 4.66801 43.3211 3.82135 43.9651 4.46535C44.6091 5.10935 43.7304 5.98001 43.7304 5.98001Z" fill="#3A87C2"/>
</g>
<defs>
<clipPath id="clip0_425_1291">
<rect width="48" height="48" fill="white"/>
</clipPath>
</defs>
</svg>
