<svg width="50" height="50" viewBox="0 0 50 50" fill="none" xmlns="http://www.w3.org/2000/svg">
<path d="M4.16669 39.5833C4.16669 43.125 6.87502 45.8333 10.4167 45.8333H39.5834C43.125 45.8333 45.8334 43.125 45.8334 39.5833V22.9166H4.16669V39.5833ZM39.5834 8.33329H35.4167V6.24996C35.4167 4.99996 34.5834 4.16663 33.3334 4.16663C32.0834 4.16663 31.25 4.99996 31.25 6.24996V8.33329H18.75V6.24996C18.75 4.99996 17.9167 4.16663 16.6667 4.16663C15.4167 4.16663 14.5834 4.99996 14.5834 6.24996V8.33329H10.4167C6.87502 8.33329 4.16669 11.0416 4.16669 14.5833V18.75H45.8334V14.5833C45.8334 11.0416 43.125 8.33329 39.5834 8.33329Z" fill="#58B4AE"/>
</svg>
