<svg width="40" height="37" viewBox="0 0 40 37" fill="none" xmlns="http://www.w3.org/2000/svg">
<path d="M0 18.3697C-3.90011e-08 15.9574 0.515519 13.5686 1.51712 11.3399C2.51873 9.11121 3.9868 7.08615 5.83752 5.38036C7.68825 3.67458 9.88538 2.32148 12.3035 1.39831C14.7215 0.475147 17.3132 0 19.9306 0C22.5479 0 25.1396 0.475147 27.5577 1.39831C29.9757 2.32148 32.1729 3.67458 34.0236 5.38036C35.8743 7.08615 37.3424 9.11121 38.344 11.3399C39.3456 13.5686 39.8611 15.9574 39.8611 18.3697C39.8611 23.2417 37.7613 27.9141 34.0236 31.359C30.2859 34.804 25.2165 36.7394 19.9306 36.7394C14.6446 36.7394 9.57523 34.804 5.83752 31.359C2.09982 27.9141 7.87662e-08 23.2417 0 18.3697Z" fill="url(#paint0_linear_385_2324)"/>
<path d="M26.9734 12.7496L17.4399 21.561L12.8027 17.287C12.6483 17.1446 12.465 17.0317 12.2632 16.9547C12.0615 16.8777 11.8452 16.838 11.6268 16.838C11.4085 16.838 11.1922 16.8777 10.9905 16.9547C10.7887 17.0317 10.6054 17.1446 10.4509 17.287C10.2965 17.4293 10.174 17.5983 10.0905 17.7842C10.0069 17.9702 9.96387 18.1695 9.96387 18.3708C9.96387 18.5721 10.0069 18.7714 10.0905 18.9573C10.174 19.1433 10.2965 19.3123 10.4509 19.4546L16.264 24.8124C16.4183 24.955 16.6016 25.0681 16.8034 25.1453C17.0051 25.2224 17.2215 25.2621 17.4399 25.2621C17.6584 25.2621 17.8747 25.2224 18.0765 25.1453C18.2783 25.0681 18.4615 24.955 18.6158 24.8124L29.3252 14.9111C29.6273 14.622 29.7941 14.2351 29.7898 13.8337C29.7854 13.4324 29.6101 13.0486 29.3017 12.7652C28.9933 12.4818 28.5765 12.3213 28.141 12.3184C27.7055 12.3155 27.2862 12.4704 26.9734 12.7496Z" fill="url(#paint1_linear_385_2324)"/>
<defs>
<linearGradient id="paint0_linear_385_2324" x1="1.42503" y1="6.88864" x2="26.6158" y2="35.2859" gradientUnits="userSpaceOnUse">
<stop stop-color="#52D17C"/>
<stop offset="1" stop-color="#22918B"/>
</linearGradient>
<linearGradient id="paint1_linear_385_2324" x1="13.6863" y1="13.6222" x2="16.3998" y2="28.2841" gradientUnits="userSpaceOnUse">
<stop stop-color="white"/>
<stop offset="1" stop-color="#E3FFD9"/>
</linearGradient>
</defs>
</svg>
