<svg width="24" height="24" viewBox="0 0 24 24" fill="none" xmlns="http://www.w3.org/2000/svg">
<path d="M21.3333 2.4H15.76C15.2 1.008 13.7333 0 12 0C10.2667 0 8.8 1.008 8.24 2.4H2.66667C1.95942 2.4 1.28115 2.65286 0.781048 3.10294C0.280951 3.55303 0 4.16348 0 4.8V21.6C0 22.2365 0.280951 22.847 0.781048 23.2971C1.28115 23.7471 1.95942 24 2.66667 24H21.3333C22.0406 24 22.7189 23.7471 23.219 23.2971C23.719 22.847 24 22.2365 24 21.6V4.8C24 4.16348 23.719 3.55303 23.219 3.10294C22.7189 2.65286 22.0406 2.4 21.3333 2.4ZM12 2.4C12.3536 2.4 12.6928 2.52643 12.9428 2.75147C13.1929 2.97652 13.3333 3.28174 13.3333 3.6C13.3333 3.91826 13.1929 4.22348 12.9428 4.44853C12.6928 4.67357 12.3536 4.8 12 4.8C11.6464 4.8 11.3072 4.67357 11.0572 4.44853C10.8071 4.22348 10.6667 3.91826 10.6667 3.6C10.6667 3.28174 10.8071 2.97652 11.0572 2.75147C11.3072 2.52643 11.6464 2.4 12 2.4ZM5.33333 7.2H18.6667V4.8H21.3333V21.6H2.66667V4.8H5.33333V7.2Z" fill="black"/>
</svg>
