<svg width="50" height="50" viewBox="0 0 50 50" fill="none" xmlns="http://www.w3.org/2000/svg">
<path d="M13.3714 4.66862C13.4445 4.47232 13.5759 4.30307 13.748 4.18356C13.92 4.06405 14.1245 4 14.3339 4C14.5434 4 14.7479 4.06405 14.9199 4.18356C15.0919 4.30307 15.2233 4.47232 15.2964 4.66862L16.7798 8.67279C16.9881 9.23529 17.4298 9.67904 17.9923 9.88737L21.9964 11.3665C22.1934 11.4393 22.3634 11.5706 22.4835 11.7429C22.6035 11.9152 22.6679 12.1201 22.6679 12.3301C22.6679 12.5401 22.6035 12.745 22.4835 12.9173C22.3634 13.0896 22.1934 13.2209 21.9964 13.2936L17.9923 14.777C17.7157 14.8815 17.4645 15.0436 17.2555 15.2527C17.0464 15.4617 16.8843 15.7129 16.7798 15.9895L15.2964 19.9936C15.2233 20.1899 15.0919 20.3592 14.9199 20.4787C14.7479 20.5982 14.5434 20.6622 14.3339 20.6622C14.1245 20.6622 13.92 20.5982 13.748 20.4787C13.5759 20.3592 13.4445 20.1899 13.3714 19.9936L11.8902 15.9895C11.7857 15.7123 11.6233 15.4606 11.4139 15.2512C11.2044 15.0417 10.9528 14.8793 10.6756 14.7749L6.67143 13.2957C6.47444 13.223 6.30447 13.0916 6.18441 12.9194C6.06436 12.7471 6 12.5421 6 12.3322C6 12.1222 6.06436 11.9172 6.18441 11.745C6.30447 11.5727 6.47444 11.4413 6.67143 11.3686L10.6756 9.88737C11.2381 9.67904 11.6818 9.23529 11.8902 8.67279L13.3714 4.66862Z" stroke="black" stroke-width="1.5"/>
<path d="M29.7588 19.9164L32.8484 23.006M12.2505 45.6643H15.3713C17.8963 45.6643 19.1588 45.6643 20.2942 45.1935C21.4297 44.7227 22.3234 43.831 24.1088 42.0435L41.088 25.0664C42.2109 23.9435 42.7713 23.3831 43.0713 22.7748C43.3523 22.2063 43.4985 21.5807 43.4985 20.9466C43.4985 20.3125 43.3523 19.6869 43.0713 19.1185C42.7713 18.5123 42.2109 17.9518 41.088 16.8268C39.963 15.7039 39.4026 15.1435 38.7963 14.8435C38.2276 14.5621 37.6017 14.4158 36.9672 14.4158C36.3327 14.4158 35.7067 14.5621 35.138 14.8435C34.5338 15.1435 33.9713 15.7039 32.8463 16.8268L15.8692 33.806C14.0838 35.5914 13.1922 36.4852 12.7213 37.6185C12.2505 38.7581 12.2505 40.0185 12.2505 42.5456V45.6643Z" stroke="black" stroke-width="1.5" stroke-linecap="round" stroke-linejoin="round"/>
</svg>
