<svg width="24" height="22" viewBox="0 0 24 22" fill="none" xmlns="http://www.w3.org/2000/svg">
<path d="M4 10.7982C4 11.0369 4.10536 11.2658 4.29289 11.4345C4.48043 11.6033 4.73478 11.6981 5 11.6981H12.59L10.29 13.7587C10.1963 13.8424 10.1219 13.9419 10.0711 14.0516C10.0203 14.1612 9.9942 14.2788 9.9942 14.3976C9.9942 14.5164 10.0203 14.634 10.0711 14.7437C10.1219 14.8533 10.1963 14.9528 10.29 15.0365C10.383 15.1208 10.4936 15.1878 10.6154 15.2335C10.7373 15.2792 10.868 15.3027 11 15.3027C11.132 15.3027 11.2627 15.2792 11.3846 15.2335C11.5064 15.1878 11.617 15.1208 11.71 15.0365L15.71 11.4371C15.801 11.3516 15.8724 11.2506 15.92 11.1402C16.02 10.9211 16.02 10.6754 15.92 10.4563C15.8724 10.3458 15.801 10.2449 15.71 10.1594L11.71 6.55998C11.6168 6.47608 11.5061 6.40952 11.3842 6.36412C11.2624 6.31871 11.1319 6.29534 11 6.29534C10.8681 6.29534 10.7376 6.31871 10.6158 6.36412C10.4939 6.40952 10.3832 6.47608 10.29 6.55998C10.1968 6.64388 10.1228 6.74348 10.0723 6.8531C10.0219 6.96272 9.99591 7.08021 9.99591 7.19887C9.99591 7.31752 10.0219 7.43501 10.0723 7.54463C10.1228 7.65425 10.1968 7.75385 10.29 7.83775L12.59 9.8984H5C4.73478 9.8984 4.48043 9.9932 4.29289 10.162C4.10536 10.3307 4 10.5596 4 10.7982ZM17 1.7998H7C6.20435 1.7998 5.44129 2.08422 4.87868 2.59048C4.31607 3.09674 4 3.78338 4 4.49934V7.19887C4 7.43752 4.10536 7.6664 4.29289 7.83515C4.48043 8.0039 4.73478 8.09871 5 8.09871C5.26522 8.09871 5.51957 8.0039 5.70711 7.83515C5.89464 7.6664 6 7.43752 6 7.19887V4.49934C6 4.26068 6.10536 4.0318 6.29289 3.86305C6.48043 3.6943 6.73478 3.59949 7 3.59949H17C17.2652 3.59949 17.5196 3.6943 17.7071 3.86305C17.8946 4.0318 18 4.26068 18 4.49934V17.0971C18 17.3358 17.8946 17.5647 17.7071 17.7334C17.5196 17.9022 17.2652 17.997 17 17.997H7C6.73478 17.997 6.48043 17.9022 6.29289 17.7334C6.10536 17.5647 6 17.3358 6 17.0971V14.3976C6 14.159 5.89464 13.9301 5.70711 13.7613C5.51957 13.5926 5.26522 13.4978 5 13.4978C4.73478 13.4978 4.48043 13.5926 4.29289 13.7613C4.10536 13.9301 4 14.159 4 14.3976V17.0971C4 17.8131 4.31607 18.4997 4.87868 19.006C5.44129 19.5123 6.20435 19.7967 7 19.7967H17C17.7956 19.7967 18.5587 19.5123 19.1213 19.006C19.6839 18.4997 20 17.8131 20 17.0971V4.49934C20 3.78338 19.6839 3.09674 19.1213 2.59048C18.5587 2.08422 17.7956 1.7998 17 1.7998Z" fill="#F91414"/>
</svg>
