<svg width="24" height="24" viewBox="0 0 24 24" fill="none" xmlns="http://www.w3.org/2000/svg">
<g clip-path="url(#clip0_356_2694)">
<path d="M8.69999 16.6004L11.9 23.8671C11.9 23.9004 11.8667 23.9004 11.8667 23.9004L5.63333 16.6004H8.69999ZM5.76666 9.90039H0.0333252C0.0333252 10.1337 0.399992 10.4337 0.399992 10.4337L5.63333 16.6004L7.73333 14.3671L5.76666 9.90039Z" fill="#0096D1"/>
<path d="M23.8333 10.167C23.6666 10.3337 23.4 10.3337 23.2333 10.167C23.1666 10.1003 23.1 9.96699 23.1 9.86699H18.2L15.1333 6.53366L18.3333 3.16699L23.7666 9.53366C23.7666 9.53366 23.7666 9.56699 23.8 9.56699H23.8333C24 9.76699 24 10.0337 23.8333 10.167ZM11.9666 9.90033L15.1 6.56699L11.9666 3.16699L8.83331 6.56699L11.9666 9.90033Z" fill="#76DFFF"/>
<path d="M12.1 23.9004C12.0667 23.9337 12.0333 23.9004 12.0667 23.8671L15.2667 16.6004H18.3333L12.1 23.9004ZM16.2333 14.3671L18.3333 16.6004L23.8 10.2004C23.8 10.2004 23.9333 10.0004 23.9333 9.90039H18.2L16.2333 14.3671Z" fill="#59CAFC"/>
<path d="M8.83333 6.56641L5.76666 9.89974H11.9667L8.83333 6.56641Z" fill="#27C7FF"/>
<path d="M15.1333 6.56641L11.9667 9.89974H18.2L15.1333 6.56641Z" fill="#B0E9FF"/>
<path d="M8.83333 6.56686L5.76666 9.9002H0.0333252C0.0333252 9.9002 0.0666585 9.7002 0.199992 9.56686L5.46666 3.4002C5.49999 3.36686 5.53333 3.33353 5.56666 3.33353C5.63333 3.23353 5.73333 3.2002 5.86666 3.2002C6.09999 3.2002 6.26666 3.4002 6.26666 3.6002C6.26666 3.66686 6.23333 3.73353 6.19999 3.8002L8.83333 6.56686ZM11.9667 9.9002L16.2333 14.4002L18.2 9.9002H11.9667ZM5.76666 9.9002L7.73333 14.4002L12 9.9002H5.76666ZM8.69999 16.6002L11.9333 23.9335C11.9667 23.9669 12 23.9669 12.0333 23.9335L15.2667 16.6002H8.69999ZM16.2333 14.3669L15.2667 16.6002H18.3333L16.2333 14.3669Z" fill="#00B1FF"/>
<path d="M15.1333 6.56699L11.9666 3.16699H18.3333L15.1333 6.56699ZM11.9666 3.16699H5.99998C5.86665 3.16699 5.59998 3.16699 5.69998 3.26699L8.83331 6.56699L11.9666 3.16699Z" fill="#59CAFC"/>
<path d="M7.73336 14.3662L5.63336 16.5995H8.70003L7.73336 14.3662Z" fill="#0074A8"/>
<path d="M7.73334 14.3671L8.7 16.6004H15.2667L16.2333 14.3671L11.9667 9.90039L7.73334 14.3671Z" fill="#0096D1"/>
<path d="M17.5666 9.9666C18.4666 10.1999 19.1666 10.8999 19.4 11.7999C19.4333 11.8999 19.5333 11.8999 19.5666 11.7999C19.8 10.8999 20.5 10.1999 21.4 9.9666C21.5 9.93327 21.5 9.83327 21.4 9.79993C20.5 9.5666 19.8 8.8666 19.5666 7.9666C19.5333 7.8666 19.4333 7.8666 19.4 7.9666C19.1666 8.8666 18.4666 9.5666 17.5666 9.79993C17.4666 9.83327 17.4666 9.93327 17.5666 9.9666Z" fill="white"/>
<path d="M14.2 1.19993C14.6667 1.33327 15.0333 1.69994 15.1667 2.1666C15.1667 2.19993 15.2333 2.19993 15.2333 2.1666C15.3667 1.69994 15.7333 1.33327 16.2 1.19993C16.2333 1.19993 16.2333 1.13327 16.2 1.13327C15.7333 0.999935 15.3667 0.633268 15.2333 0.166602C15.2333 0.133268 15.1667 0.133268 15.1667 0.166602C15.0333 0.633268 14.6667 0.999935 14.2 1.13327C14.1667 1.13327 14.1667 1.19993 14.2 1.19993Z" fill="#B0E9FF"/>
</g>
<defs>
<clipPath id="clip0_356_2694">
<rect width="24" height="24" fill="white"/>
</clipPath>
</defs>
</svg>
