<svg width="48" height="48" viewBox="0 0 48 48" fill="none" xmlns="http://www.w3.org/2000/svg">
<path d="M31 22C31 21.0807 30.8189 20.1705 30.4672 19.3212C30.1154 18.4719 29.5998 17.7003 28.9497 17.0503C28.2997 16.4002 27.5281 15.8846 26.6788 15.5328C25.8295 15.1811 24.9193 15 24 15C23.0807 15 22.1705 15.1811 21.3212 15.5328C20.4719 15.8846 19.7003 16.4002 19.0503 17.0503C18.4002 17.7003 17.8846 18.4719 17.5328 19.3212C17.1811 20.1705 17 21.0807 17 22C17 23.8565 17.7375 25.637 19.0503 26.9497C20.363 28.2625 22.1435 29 24 29C25.8565 29 27.637 28.2625 28.9497 26.9497C30.2625 25.637 31 23.8565 31 22Z" stroke="#58B4AE" stroke-width="1.5" stroke-linecap="round" stroke-linejoin="round"/>
<path d="M30.9657 22.7C31.6111 22.8987 32.2891 22.9987 32.9997 23M32.9997 23C34.3543 22.9998 35.6797 22.6066 36.8152 21.868C37.9508 21.1294 38.8476 20.0773 39.397 18.8391C39.9464 17.601 40.1248 16.23 39.9105 14.8925C39.6962 13.555 39.0984 12.3084 38.1896 11.3039C37.2809 10.2993 36.1002 9.58008 34.7907 9.23329C33.4813 8.8865 32.0994 8.92708 30.8125 9.35011C29.5257 9.77315 28.3893 10.5605 27.541 11.6166C26.6928 12.6727 26.1692 13.9522 26.0337 15.3M32.9997 23C39.0757 23 43.9997 27.478 43.9997 33M21.9657 15.3C21.8211 13.8648 21.2367 12.5094 20.2924 11.419C19.3482 10.3287 18.0901 9.55665 16.6903 9.20855C15.2905 8.86045 13.8174 8.95327 12.4723 9.47432C11.1273 9.99537 9.9761 10.9192 9.17614 12.1195C8.37618 13.3197 7.96654 14.7378 8.00324 16.1798C8.03995 17.6217 8.52121 19.0171 9.3812 20.1751C10.2412 21.3332 11.4379 22.1972 12.8077 22.6492C14.1775 23.1011 15.6535 23.1189 17.0337 22.7M34.9997 39C34.9997 33.478 30.0757 29 23.9997 29C17.9237 29 12.9997 33.478 12.9997 39" stroke="#58B4AE" stroke-width="1.5" stroke-linecap="round" stroke-linejoin="round"/>
<path d="M15 23C8.924 23 4 27.478 4 33" stroke="#58B4AE" stroke-width="1.5" stroke-linecap="round" stroke-linejoin="round"/>
</svg>
