<svg width="48" height="48" viewBox="0 0 48 48" fill="none" xmlns="http://www.w3.org/2000/svg">
<path d="M42.2252 25.05L41.3252 11.475L35.1002 15.3C32.0252 14.775 31.2002 14.775 28.8002 13.65C27.3752 12.975 25.5752 13.425 24.6752 13.95C23.3252 12.525 14.5502 14.625 13.5752 15.075C10.9502 14.25 7.0502 11.25 7.0502 11.25L5.7002 26.55L7.5002 27C7.6502 27.525 8.1002 28.8 8.1002 28.8C6.4502 30.9 8.4002 33.375 10.2752 32.55C9.4502 34.65 11.6252 36.6 13.3502 35.25C13.1252 37.2 15.1502 38.625 16.6502 37.275C15.9752 39.6 18.6002 41.325 20.1752 39.45C21.3002 40.2 22.3502 40.8 23.2502 41.1C24.8252 41.775 26.5502 40.275 26.2502 38.4C28.0502 40.5 30.7502 38.475 30.1502 36.15C32.1752 37.725 34.6502 35.1 33.3752 32.775C35.6252 34.05 37.5752 30.6 35.4002 28.35L42.2252 25.05Z" fill="#FFDD67"/>
<path d="M10.4254 27.2249C11.5504 27.7499 12.3004 29.4749 11.1004 30.9749L10.5754 31.5749C9.97539 32.3249 9.37539 32.5499 8.77539 32.5499C9.22539 32.7749 9.75039 32.7749 10.2754 32.5499C10.3504 32.3249 10.5004 32.0249 10.7254 31.7999L11.2504 31.1999C11.5504 30.8249 11.9254 30.5249 12.2254 30.3749C12.8254 28.7999 11.7754 27.2999 10.4254 27.2249ZM18.9754 34.6499C20.1754 34.9499 21.0754 36.5249 20.1754 38.2499L19.7254 38.9249C19.2754 39.7499 18.6754 40.1249 18.0754 40.1999C18.9004 40.4249 19.8004 40.1249 20.4004 38.9999L20.8504 38.3249C21.9754 36.2249 20.5504 34.4999 18.9754 34.6499ZM13.7254 34.0499L14.9254 32.1749C14.8504 31.1249 13.9504 30.2249 13.0504 30.1499C14.1754 30.6749 14.9254 32.3999 13.7254 33.8999L13.2004 34.4999C12.6004 35.2499 12.0004 35.4749 11.3254 35.4749C11.9254 35.7749 12.6004 35.6999 13.2754 35.2499C13.3504 34.8749 13.5004 34.4249 13.7254 34.0499ZM16.9504 30.6749C18.1504 31.0499 18.9754 32.6999 17.9254 34.3499L16.5004 36.5999C15.9754 37.4249 15.3754 37.7249 14.7754 37.7249C15.5254 37.9499 16.5004 37.7249 17.1754 36.6749L18.6004 34.4249C19.8004 32.4749 18.4504 30.5999 16.9504 30.6749ZM26.9254 32.5499C27.0004 32.5499 27.9004 32.3999 28.2004 32.3999C27.0754 31.2749 25.2754 32.1749 24.2254 31.5749C24.9754 32.8499 26.5504 32.5499 26.7004 32.5499L28.5004 34.8749C30.0004 36.7499 28.8004 38.9249 27.2254 39.1499C28.8754 39.6749 30.5254 37.9499 30.0004 36.0749C29.9254 35.9999 26.9254 32.5499 26.9254 32.5499ZM28.7254 28.1999C28.7254 28.1999 29.8504 27.9749 30.8254 27.9749C29.7004 27.0749 27.9754 27.8999 26.8504 27.1499C27.3004 28.1249 28.2754 28.1249 28.5754 28.1999L32.0254 32.1749C33.6004 33.9749 32.4754 36.1499 30.9004 36.5249C32.7004 37.0499 34.4254 34.7249 33.3004 32.6999C32.5504 32.3999 28.7254 28.1999 28.7254 28.1999Z" fill="#EBA352"/>
<path d="M26.325 36.8251C25.2 35.9251 23.625 36.6001 22.95 36.1501C23.325 37.2001 24.75 36.9751 24.825 36.9751C26.1 38.9251 24.75 40.9501 23.175 41.1001C24.75 41.7751 26.475 40.2751 26.175 38.4001C26.1 38.3251 25.05 36.9751 25.05 36.9751C25.2 36.9001 26.025 36.8251 26.325 36.8251ZM41.4 23.7751C41.4 23.7751 40.125 26.4001 35.175 27.8251C34.5 27.0001 33.075 25.3501 31.425 23.9251C32.475 23.7001 33 22.8751 33.825 22.7251C33.525 22.4251 32.475 22.5751 31.65 22.8751C30.15 23.4001 26.7 21.0001 26.7 21.0001L23.85 21.3751C21.825 23.3251 17.475 24.3751 17.25 21.3751C17.1 19.2751 21.675 17.8501 23.1 16.5001C24.9 14.7751 26.475 12.6001 29.4 14.1001C31.8 15.3001 32.775 15.2251 36.075 15.8251C37.2 16.0501 37.95 16.5751 38.775 17.7001C38.1 16.1251 37.125 15.4501 35.925 15.2251L41.175 12.7501L41.25 11.4751L35.025 15.0001C32.175 14.5501 31.125 14.5501 28.8 13.4251C27.3 12.6751 26.1 12.9001 25.125 13.5001C23.325 12.4501 22.275 12.6751 21.6 12.8251C19.5 13.5001 16.125 13.5751 13.125 14.7751C13.65 14.9251 14.175 15.0751 14.55 15.0751C17.475 14.1751 20.55 14.2501 21.975 13.7251C22.425 13.5751 23.325 13.5751 24.3 14.1001C23.7 14.6251 23.175 15.2251 22.575 15.8251C21.15 17.1751 16.8 19.1251 17.1 21.6001C17.25 22.8001 18.9 25.9501 24.375 22.4251L26.7 22.1251C26.7 22.1251 30.975 24.1501 34.95 28.8001C36.525 30.6001 35.55 32.5501 33.975 33.0001C36 33.3751 37.725 30.5251 35.775 28.5751L40.5 26.0251L41.4 23.7751Z" fill="#EBA352"/>
<path d="M40.0499 12.2251L42.5249 25.0501L40.4999 25.9501C39.4499 23.1751 37.8749 16.5001 38.2499 13.2751L40.0499 12.2251Z" fill="#3B946F"/>
<path d="M8.3252 28.5C7.9502 27.6 7.7252 26.4 7.7252 26.4L5.8502 25.125L5.7002 26.55L7.3502 27C7.5752 27.75 7.8002 28.35 8.1002 28.8L8.3252 28.5Z" fill="#EBA352"/>
<path d="M4.5752 26.3248L8.6252 12.2998L10.5002 13.5748C10.8002 15.6748 7.3502 25.2748 6.0752 26.6998L4.5752 26.3248Z" fill="#3B946F"/>
<path d="M39.975 12.15C39.375 12.525 41.55 25.5 42.45 25.125C45.3 23.85 46.575 23.475 46.575 23.475V8.025C46.5 8.025 44.775 9.3 39.975 12.15ZM1.5 6.75V25.875C1.5 25.875 2.85 26.1 4.575 26.475C5.55 26.7 9.075 12.6 8.85 12.375C6.3 10.65 1.5 6.75 1.5 6.75Z" fill="#47B892"/>
</svg>
