<svg width="50" height="50" viewBox="0 0 50 50" fill="none" xmlns="http://www.w3.org/2000/svg">
<path fill-rule="evenodd" clip-rule="evenodd" d="M25 8.2125C27.4401 5.9517 30.6423 4.69313 33.9687 4.6875C37.5646 4.6875 40.9979 6.16667 43.5104 8.77083C46.0106 11.3771 47.4033 14.8509 47.3958 18.4625C47.4033 22.0741 46.0106 25.5479 43.5104 28.1542C41.8521 29.8729 40.1958 31.6333 38.5312 33.4C35.1479 36.9917 31.7292 40.6229 28.1771 44.0417L28.1708 44.05C27.2889 44.8852 26.1129 45.3386 24.8986 45.3117C23.6842 45.2848 22.5295 44.7797 21.6854 43.9063L6.48749 28.1542C1.3104 22.7854 1.3104 14.1396 6.48749 8.77292C8.88042 6.26543 12.1643 4.80083 15.6288 4.69596C19.0933 4.59108 22.4598 5.85435 25 8.2125Z" fill="#58B4AE"/>
</svg>
