<svg width="48" height="48" viewBox="0 0 48 48" fill="none" xmlns="http://www.w3.org/2000/svg">
<path d="M38.5415 17.2432C38.5415 9.01282 32.0812 2.34082 24.1121 2.34082C16.1429 2.34082 9.68262 9.01291 9.68262 17.2432C9.68262 20.9651 11.0038 24.3681 13.1881 26.9797H13.188L16.3442 32.701C17.1686 34.2273 17.4746 35.2128 18.856 35.2128H29.1473C30.5288 35.2128 30.9352 34.1749 31.659 32.701L35.0361 26.9797H35.0359C37.2202 24.3681 38.5415 20.9651 38.5415 17.2432Z" fill="#FFE46A"/>
<path d="M10.5755 19.0581C10.5755 10.553 16.986 3.52366 25.308 2.39698C24.8928 2.35988 24.4762 2.34115 24.0593 2.34082C16.0902 2.34082 9.62988 9.01291 9.62988 17.2432C9.62988 19.9517 10.3301 22.4908 11.5529 24.6794C10.9201 22.9217 10.5755 21.0295 10.5755 19.0581Z" fill="#FFF0B7"/>
<path d="M38.5415 17.275C38.5415 14.327 37.7124 11.5792 36.2824 9.26611C36.5885 10.474 36.7434 11.7153 36.7433 12.9614C36.7433 22.7539 27.2616 30.7291 15.417 31.052L16.3442 32.7329C17.1685 34.2591 17.4745 35.2446 18.8559 35.2446H29.1472C30.5287 35.2446 30.9351 34.2068 31.659 32.7329L35.0361 27.0116H35.0359C37.2201 24.3999 38.5415 20.9969 38.5415 17.275Z" fill="#FFDA00"/>
<path d="M30.1785 19.8001C30.1925 19.7878 30.2064 19.7766 30.2204 19.7631C30.4817 19.513 30.6969 19.1142 30.5168 18.7443C29.7781 17.2278 27.5196 16.7467 25.8739 17.2489C25.7906 17.2743 25.7097 17.3019 25.6313 17.3318C24.7349 16.8084 23.6219 16.6826 22.6312 16.9973C22.5139 17.0343 22.3988 17.0779 22.2864 17.1279C21.744 16.8111 21.1096 16.653 20.4776 16.7141C19.1546 16.8421 18.0049 17.9151 17.7771 19.2221L17.6729 19.2866C18.5744 20.7436 20.9475 24.9183 21.0996 26.7147C21.2913 28.981 21.0998 35.1328 21.0978 35.1947L22.2223 35.2302C22.2303 34.9749 22.4178 28.951 22.2205 26.6198C22.1325 25.5804 21.4965 23.9238 20.3301 21.696C19.7857 20.6561 19.2571 19.7432 18.9372 19.2045C19.1584 18.4877 19.8381 17.9063 20.5859 17.834C20.8136 17.8119 21.0446 17.8374 21.2656 17.9023C21.1825 18.0088 21.1096 18.123 21.0481 18.2434C20.6687 18.9873 20.8273 19.9213 21.4169 20.4161C21.7661 20.7091 22.2734 20.817 22.7413 20.6974C23.1769 20.586 23.5137 20.2997 23.6651 19.9118C23.8011 19.5633 23.7896 19.1609 23.6307 18.716C23.5386 18.46 23.4108 18.2184 23.251 17.9983C23.6756 17.9165 24.1138 17.9404 24.5269 18.0681C24.3661 18.2532 24.2431 18.4593 24.1622 18.6827C23.9894 19.1609 24.0658 19.7292 24.3617 20.166C24.6168 20.5425 25.0045 20.7663 25.4256 20.7802C25.4397 20.7807 25.4538 20.7809 25.4678 20.7809C25.8367 20.7809 26.1869 20.6223 26.458 20.3312C26.7764 19.9893 26.9385 19.5146 26.8915 19.0614C26.8616 18.7733 26.7591 18.4915 26.5941 18.2302C27.7412 18.0218 28.8633 18.4093 29.3488 18.9976C29.0558 19.4851 28.4542 20.5079 27.8321 21.6962C26.6657 23.9241 26.0295 25.5807 25.9417 26.62C25.7444 28.9512 25.9319 34.9751 25.9399 35.2304L27.0644 35.1949C27.0624 35.133 26.8709 28.9816 27.0626 26.7149C27.1994 25.0976 29.1357 21.5543 30.1785 19.8001ZM22.6169 19.5028C22.5908 19.5699 22.4922 19.5998 22.4625 19.6074C22.3454 19.6373 22.2127 19.6155 22.1399 19.5545C21.9509 19.3959 21.9099 19.0296 22.0501 18.7546C22.0961 18.666 22.1545 18.5845 22.2236 18.5124C22.3746 18.6838 22.4947 18.8805 22.5711 19.0944C22.6334 19.2688 22.6501 19.4178 22.6169 19.5028ZM25.6348 19.5641C25.6019 19.5993 25.5349 19.6571 25.4624 19.6556C25.3844 19.6531 25.3228 19.5788 25.2929 19.5348C25.1998 19.3973 25.1699 19.2041 25.2201 19.0652C25.278 18.9049 25.3899 18.7737 25.5204 18.6682C25.6657 18.8323 25.7549 19.0088 25.7724 19.1776C25.7859 19.3061 25.7305 19.4614 25.6348 19.5641Z" fill="#FAAF63"/>
<path d="M29.6185 37.7534H18.5527C17.934 37.7534 17.4277 38.2597 17.4277 38.8784V39.5306C17.4277 40.1494 17.934 40.6556 18.5527 40.6556H22.1267C21.061 41.0521 19.9358 41.9949 19.9358 43.0881V43.5268C20.7911 44.4881 21.5876 46.1594 23.1048 46.1594H25.157C26.3521 46.1594 27.2011 44.8692 28.2353 43.5268V43.0881C28.2353 41.9949 27.1618 41.0521 26.1215 40.6556H29.6185C30.2373 40.6556 30.7435 40.1494 30.7435 39.5306V38.8784C30.7435 38.2597 30.2373 37.7534 29.6185 37.7534Z" fill="#6B83A5"/>
<path d="M30.4134 37.7533H17.7588C17.14 37.7533 16.6338 37.247 16.6338 36.6283V35.9761C16.6338 35.3573 17.14 34.8511 17.7588 34.8511H30.4134C31.0322 34.8511 31.5384 35.3573 31.5384 35.9761V36.6283C31.5384 37.247 31.0322 37.7533 30.4134 37.7533ZM29.7565 42.4328V41.7806C29.7565 41.1619 29.2503 40.6556 28.6315 40.6556H19.5407C18.9219 40.6556 18.4157 41.1619 18.4157 41.7806V42.4328C18.4157 43.0516 18.9219 43.5578 19.5407 43.5578H28.6315C29.2503 43.5578 29.7565 43.0516 29.7565 42.4328Z" fill="#ABBDDB"/>
</svg>
