<svg width="40" height="37" viewBox="0 0 40 37" fill="none" xmlns="http://www.w3.org/2000/svg">
<path d="M39.8611 0V13.7773H34.8785V7.86453L24.9755 16.9346C25.7644 18.0061 26.3665 19.1451 26.7817 20.3513C27.1969 21.5576 27.4045 22.8106 27.4045 24.1102C27.4045 27.6311 26.0758 30.6162 23.4184 33.0655C20.761 35.5148 17.5223 36.7394 13.7023 36.7394C9.88223 36.7394 6.64352 35.5148 3.98611 33.0655C1.3287 30.6162 0 27.6311 0 24.1102C0 20.5894 1.3287 17.6043 3.98611 15.155C6.64352 12.7057 9.88223 11.4811 13.7023 11.4811C15.0725 11.4811 16.4219 11.6625 17.7507 12.0253C19.0794 12.3881 20.3043 12.9529 21.4254 13.7199L31.3283 4.59243H24.9132V0H39.8611ZM13.7023 16.0735C11.294 16.0735 9.23864 16.858 7.53624 18.4271C5.83384 19.9962 4.98264 21.8906 4.98264 24.1102C4.98264 26.3299 5.83384 28.2243 7.53624 29.7934C9.23864 31.3624 11.294 32.147 13.7023 32.147C16.1105 32.147 18.1659 31.3624 19.8683 29.7934C21.5707 28.2243 22.4219 26.3299 22.4219 24.1102C22.4219 21.8906 21.5707 19.9962 19.8683 18.4271C18.1659 16.858 16.1105 16.0735 13.7023 16.0735Z" fill="#1053FF"/>
</svg>
