<svg width="48" height="48" viewBox="0 0 48 48" fill="none" xmlns="http://www.w3.org/2000/svg">
<path d="M1.41406 26.8989L7.54156 20.8614L17.9741 19.0127L16.9428 24.4727L2.83906 28.8077L1.92781 28.4139L1.41406 26.8989Z" fill="#CA2C31"/>
<path d="M8.6027 22.41L1.9502 28.455L6.84395 30.84L14.2727 27.0488V25.26L15.7914 21.165L8.6027 22.41ZM24.3452 33.0563L21.1314 34.4513L18.0977 40.8825C18.0977 40.8825 20.7677 46.7963 20.8877 46.7963C21.0077 46.7963 22.5264 46.9163 22.5264 46.9163L27.9264 40.8788L29.2914 30.5663L24.3452 33.0563Z" fill="#A02422"/>
<path d="M21.1871 37.8149C21.1871 37.8149 22.9758 37.4511 24.2508 36.8436C25.5258 36.2361 27.1008 35.3286 27.1008 35.3286L26.5233 40.3649L20.8796 46.7886C20.8796 46.7886 20.6583 46.5149 19.7208 44.4749C18.9746 42.8474 18.7158 42.2661 18.7158 42.2661L21.1871 37.8149Z" fill="#CA2C31"/>
<path d="M11.8425 30.2477C11.8425 30.2477 9.69001 30.0677 7.33126 33.0489C5.17876 35.7714 4.17001 40.2039 3.78001 41.3439C3.39001 42.4839 2.45626 42.7164 2.76751 43.2377C3.07876 43.7589 4.42501 43.7289 6.08626 43.5227C7.74751 43.3164 9.17251 42.7952 9.17251 42.7952C9.17251 42.7952 9.10126 42.9752 8.86126 43.3652C8.77501 43.5039 8.47501 43.7027 8.49751 43.9089C8.55001 44.4002 12.7575 44.4114 16.1175 40.9539C19.7475 37.2227 17.985 34.1627 17.985 34.1627L11.8425 30.2477Z" fill="#F7D74D"/>
<path d="M12.4912 31.9839C12.4912 31.9839 10.17 32.1076 8.24997 35.0889C6.32997 38.0701 5.43747 41.5239 5.62122 41.7564C5.80122 41.9889 9.37872 40.6951 10.2375 40.9539C10.8262 41.1339 10.5225 41.7301 10.68 41.8876C10.8112 42.0189 12.3637 42.2401 14.8762 39.5176C17.3925 36.7951 16.7962 32.9701 16.7962 32.9701L12.4912 31.9839Z" fill="#FBF0B4"/>
<path d="M13.6314 27.915C13.6314 27.915 12.4651 28.9538 12.0489 29.55C11.6326 30.1463 11.6326 30.1988 11.6589 30.3788C11.6851 30.5588 12.1164 32.535 13.9126 34.2675C16.1176 36.3938 18.0864 36.6788 18.3714 36.6788C18.6564 36.6788 20.5501 34.5525 20.5501 34.5525L13.6314 27.915Z" fill="#858585"/>
<path d="M18.7871 34.2148C18.7871 34.2148 20.6771 35.4561 23.8459 34.3911C28.1771 32.9361 31.3534 29.6811 35.2871 25.5711C39.0821 21.6036 42.2659 16.6798 42.2659 16.6798L40.0346 9.20605L18.7871 34.2148Z" fill="#437687"/>
<path d="M25.4961 30.1239L26.0173 28.5039L27.3223 28.6877C27.3223 28.6877 28.3161 29.1564 29.0473 29.4977C29.7786 29.8389 30.7198 30.0977 30.7198 30.0977L28.8636 31.6652C28.8636 31.6652 27.8511 31.2827 27.1123 30.9602C26.2798 30.5964 25.4961 30.1239 25.4961 30.1239Z" fill="#3F545F"/>
<path d="M31.6202 6.05273C31.6202 6.05273 28.0127 8.14523 22.8414 13.039C18.1802 17.449 14.7265 21.439 13.8902 24.8327C13.1927 27.6752 13.564 29.4002 15.1502 31.264C16.8265 33.2365 18.7915 34.2152 18.7915 34.2152C18.7915 34.2152 20.2689 34.2377 26.4339 29.494C34.1252 23.5727 40.2864 13.6577 40.2864 13.6577L31.6202 6.05273Z" fill="#8DAFBF"/>
<path d="M39.0679 15.6902C39.0679 15.6902 35.9292 14.3514 33.6904 11.2277C31.4667 8.12643 31.6429 6.03018 31.6429 6.03018C31.6429 6.03018 33.5029 4.57143 37.6842 2.90268C40.4967 1.78143 44.3254 1.20768 45.5854 2.14143C46.8454 3.07518 44.7229 7.75893 44.7229 7.75893L40.8567 15.2439L39.0679 15.6902Z" fill="#D83F22"/>
<path d="M25.5642 30.1501C25.5642 30.1501 22.8529 28.7664 21.1279 26.7976C17.8654 23.0814 17.1904 19.0014 17.1904 19.0014L18.8292 17.0776C18.8292 17.0776 19.2379 21.4126 22.7367 25.1589C25.0167 27.6001 27.3979 28.7176 27.3979 28.7176C27.3979 28.7176 26.9217 29.1189 26.4117 29.5089C26.0854 29.7601 25.5642 30.1501 25.5642 30.1501Z" fill="#6896A5"/>
<path d="M42.2661 16.6801C42.2661 16.6801 43.8936 14.7189 45.4349 10.2976C47.5874 4.13264 45.7124 2.26514 45.7124 2.26514C45.7124 2.26514 45.0786 5.19764 42.8774 9.27389C41.1111 12.5401 38.9736 15.6489 38.9736 15.6489C38.9736 15.6489 40.1511 16.1776 40.7886 16.3614C41.5911 16.5939 42.2661 16.6801 42.2661 16.6801Z" fill="#A02422"/>
<path d="M14.9285 26.1226C15.416 26.5876 16.1548 26.1001 16.6385 24.9601C17.126 23.8201 17.1185 23.1826 16.7435 22.9126C16.2785 22.5751 15.4985 23.3138 15.1573 23.9701C14.7823 24.6976 14.561 25.7701 14.9285 26.1226ZM31.856 7.54883C31.856 7.54883 29.0023 9.60008 25.9573 12.3901C23.1635 14.9513 21.311 16.9538 21.056 17.4188C20.786 17.9176 20.7823 18.6226 20.9923 18.9826C21.2023 19.3426 21.6673 19.5301 22.091 19.2151C22.5148 18.8963 25.5335 15.5588 28.2598 13.1738C30.7535 10.9913 32.6773 9.60758 32.6773 9.60758C32.6773 9.60758 33.4573 8.22758 33.3298 7.91258C33.2023 7.59383 31.856 7.54883 31.856 7.54883Z" fill="#B3E1EE"/>
<path d="M31.8564 7.54895C31.8564 7.54895 33.9639 5.9327 36.2589 4.79645C38.3927 3.73895 40.5152 2.8577 40.8977 3.6227C41.2614 4.3502 38.8839 5.3402 36.7914 6.6752C34.6989 8.0102 32.6852 9.60395 32.6852 9.60395C32.6852 9.60395 32.3777 9.04145 32.1789 8.5202C32.0531 8.20283 31.9454 7.87856 31.8564 7.54895Z" fill="#ED6A65"/>
<path d="M33.5967 14.7187C31.5079 12.7949 28.6016 13.3124 27.1691 15.0224C25.6991 16.7849 25.8079 19.4774 27.5441 21.0974C29.1229 22.5674 32.0592 22.9012 33.8292 20.8387C35.4042 19.0087 35.3067 16.2899 33.5967 14.7187Z" fill="#E1E1E1"/>
<path d="M28.2484 15.7011C27.0071 16.9199 27.0746 19.3349 28.5521 20.4374C29.8421 21.4011 31.6721 21.3524 32.8196 20.1786C33.9671 19.0049 33.9671 16.8711 32.8909 15.7686C31.6534 14.5049 29.6696 14.3061 28.2484 15.7011Z" fill="#3F545F"/>
<path d="M18.7501 28.8337C18.7501 28.8337 21.0713 26.4787 21.3263 26.7337C21.5813 26.9887 21.5476 28.4174 20.4376 30.0074C19.3238 31.5974 16.8751 34.4287 14.9363 36.3374C13.0238 38.2162 10.3276 40.3649 10.0726 40.3274C9.87382 40.2974 9.06756 39.8962 8.74506 39.5062C8.43006 39.1199 9.37131 37.2937 9.75006 36.6899C10.1326 36.0862 18.7501 28.8337 18.7501 28.8337Z" fill="#A02524"/>
<path d="M7.96174 38.1938C7.93174 38.7338 8.75674 39.5213 8.75674 39.5213L21.3267 26.7376C21.3267 26.7376 20.738 26.0738 19.0055 27.1501C17.258 28.2376 15.728 29.5426 13.4705 31.7288C10.3242 34.7813 7.99174 37.6538 7.96174 38.1938Z" fill="#CA2C31"/>
<path d="M7.14751 13.8565C6.73126 14.2727 6.71251 14.9402 7.17751 15.3227C7.59001 15.664 8.26126 15.4427 8.51251 15.1352C8.76376 14.8277 8.73376 14.1602 8.40001 13.8302C8.06626 13.4965 7.40251 13.6052 7.14751 13.8565Z" fill="white"/>
<path opacity="0.5" d="M15.3828 13.3686C15.0678 13.7173 15.1691 14.2348 15.4616 14.4261C15.7541 14.6173 16.1928 14.5986 16.4066 14.3361C16.5978 14.0998 16.6203 13.6273 16.3278 13.3348C16.0728 13.0836 15.5853 13.1436 15.3828 13.3686Z" fill="white"/>
<path d="M20.8315 4.4588C20.8315 4.4588 21.289 3.1538 21.559 3.1388C21.8328 3.1238 22.2265 4.4438 22.2265 4.4438C22.2265 4.4438 23.5803 4.4588 23.6703 4.65755C23.7865 4.91255 22.804 5.76755 22.804 5.76755C22.804 5.76755 23.1228 7.04255 22.9728 7.1963C22.804 7.36505 21.6378 6.6938 21.6378 6.6938C21.6378 6.6938 20.4378 7.53005 20.179 7.3013C19.954 7.10255 20.4228 5.75255 20.4228 5.75255C20.4228 5.75255 19.2978 4.9313 19.3578 4.70255C19.444 4.38005 20.8315 4.4588 20.8315 4.4588ZM36.379 35.7488C36.8328 36 37.4028 35.8576 37.6128 35.3738C37.804 34.9426 37.4515 34.4288 37.1328 34.2901C36.814 34.1513 36.2553 34.335 36.0528 34.6988C35.854 35.0588 36.1053 35.5988 36.379 35.7488ZM42.8215 24.69C42.5628 24.2888 42.004 24.1575 41.6403 24.48C41.2878 24.795 41.374 25.29 41.5728 25.5413C41.7715 25.7925 42.304 25.8863 42.6265 25.68C42.949 25.4738 42.979 24.93 42.8215 24.69Z" fill="white"/>
</svg>
