<svg width="48" height="48" viewBox="0 0 48 48" fill="none" xmlns="http://www.w3.org/2000/svg">
<path d="M24 48C2.86129 35.625 2.69629 11.25 2.69629 11.25L24 0L34.17 5.37L45.3038 11.25C45.3038 11.25 45.3038 35.0625 24 48Z" fill="#106BA4"/>
<path d="M24 48C2.86129 35.625 2.69629 11.25 2.69629 11.25L24 0L34.17 5.37L45.3038 11.25C45.3038 11.25 45.3038 35.0625 24 48Z" fill="#106BA4"/>
<path d="M24 48C2.86129 35.625 2.69629 11.25 2.69629 11.25L24 0L34.17 5.37L45.3038 11.25C45.3038 11.25 45.3038 35.0625 24 48Z" fill="#106BA4"/>
<path d="M24 48C2.86129 35.625 2.69629 11.25 2.69629 11.25L24 0L34.17 5.37L45.3038 11.25C45.3038 11.25 45.3038 35.0625 24 48Z" fill="#106BA4"/>
<path d="M24 48C2.86129 35.625 2.69629 11.25 2.69629 11.25L24 0L34.17 5.37L45.3038 11.25C45.3038 11.25 45.3038 35.0625 24 48Z" fill="#106BA4"/>
<path d="M24 48C2.86129 35.625 2.69629 11.25 2.69629 11.25L24 0L34.17 5.37L45.3038 11.25C45.3038 11.25 45.3038 35.0625 24 48Z" fill="#106BA4"/>
<path d="M24 48C2.86129 35.625 2.69629 11.25 2.69629 11.25L24 0L34.17 5.37L45.3038 11.25C45.3038 11.25 45.3038 35.0625 24 48Z" fill="#106BA4"/>
<path d="M24 48C2.86129 35.625 2.69629 11.25 2.69629 11.25L24 0L34.17 5.37L45.3038 11.25C45.3038 11.25 45.3038 35.0625 24 48Z" fill="#106BA4"/>
<path d="M23.9736 44.0099C9.60356 34.5449 6.7648 18.7461 6.20605 13.2111L23.9998 3.81738L41.8011 13.2186C41.5798 15.4536 40.9873 19.3836 39.3748 23.8836C36.3298 32.3961 31.1511 39.1611 23.9736 44.0099Z" fill="white"/>
<path d="M24 44.0099V3.81738L41.8162 13.2186C41.595 15.4536 41.01 19.3836 39.3975 23.8836C36.3487 32.3961 31.125 39.1611 24 44.0099Z" fill="#37BFE9"/>
</svg>
