<svg width="50" height="50" viewBox="0 0 50 50" fill="none" xmlns="http://www.w3.org/2000/svg">
<path d="M8.12467 23.2816C7.74273 22.8649 7.55176 22.3705 7.55176 21.7982C7.55176 21.226 7.74273 20.7309 8.12467 20.3128L13.958 14.4795L11.7184 12.2399L11.0934 12.8649C10.6768 13.2816 10.1823 13.4899 9.61009 13.4899C9.03787 13.4899 8.54273 13.2816 8.12467 12.8649C7.74273 12.4482 7.55176 11.9538 7.55176 11.3816C7.55176 10.8094 7.74273 10.3316 8.12467 9.94824L12.2913 5.78158C12.708 5.36491 13.2031 5.15658 13.7768 5.15658C14.3504 5.15658 14.8448 5.36491 15.2601 5.78158C15.6768 6.16352 15.8851 6.64963 15.8851 7.23991C15.8851 7.83019 15.6768 8.3163 15.2601 8.69824L14.6351 9.32324L16.8747 11.5628L22.708 5.72949C23.1247 5.31283 23.6198 5.10449 24.1934 5.10449C24.767 5.10449 25.2615 5.31283 25.6768 5.72949C26.092 6.14616 26.3004 6.6413 26.3018 7.21491C26.3031 7.78852 26.0948 8.28296 25.6768 8.69824L24.2705 10.0524L27.4997 13.2816L21.6143 19.1149C21.2323 19.5316 21.0413 20.0267 21.0413 20.6003C21.0413 21.1739 21.2323 21.6684 21.6143 22.0837C22.0309 22.5003 22.5261 22.7087 23.0997 22.7087C23.6733 22.7087 24.1677 22.5003 24.583 22.0837L30.4163 16.1982L33.5934 19.3232L27.708 25.2087C27.2913 25.6253 27.083 26.1205 27.083 26.6941C27.083 27.2677 27.2913 27.7621 27.708 28.1774C28.09 28.5594 28.5677 28.742 29.1413 28.7253C29.715 28.7087 30.2094 28.5087 30.6247 28.1253L36.458 22.2399L39.6351 25.417C40.4337 26.2156 40.833 27.1969 40.833 28.3607C40.833 29.5246 40.4337 30.5052 39.6351 31.3024L38.1768 32.8128L48.0205 42.6045H42.083L35.208 35.7295L33.7497 37.2399C32.9511 38.0385 31.9705 38.4378 30.808 38.4378C29.6455 38.4378 28.6643 38.0385 27.8643 37.2399L12.4997 21.8753L11.0934 23.2816C10.6768 23.6635 10.1823 23.8545 9.61009 23.8545C9.03787 23.8545 8.54273 23.6635 8.12467 23.2816Z" fill="black"/>
</svg>
