<svg width="44" height="39" viewBox="0 0 44 39" fill="none" xmlns="http://www.w3.org/2000/svg">
<path d="M20.0609 1.04297L0.27967 35.3086C-0.517205 36.6992 0.482795 38.4492 2.09217 38.4492H41.6547C43.264 38.4492 44.264 36.7148 43.4672 35.3086L23.6859 1.04297C22.8734 -0.347656 20.8734 -0.347656 20.0609 1.04297Z" fill="#FFB02E"/>
<path d="M19.6855 25.7773C19.6876 26.3575 19.9201 26.9131 20.3318 27.3218C20.5356 27.5243 20.7774 27.6845 21.0431 27.7935C21.3089 27.9025 21.5936 27.9581 21.8809 27.957C22.1681 27.956 22.4524 27.8984 22.7174 27.7875C22.9824 27.6766 23.223 27.5147 23.4254 27.3108C23.6278 27.1069 23.788 26.8652 23.897 26.5994C24.006 26.3336 24.0616 26.049 24.0605 25.7617V11.4492C24.0605 10.2461 23.0918 9.26172 21.873 9.26172C20.6699 9.26172 19.6855 10.2305 19.6855 11.4492V25.7773ZM24.0605 31.9961C24.0605 32.5763 23.8301 33.1327 23.4198 33.5429C23.0096 33.9531 22.4532 34.1836 21.873 34.1836C21.2929 34.1836 20.7365 33.9531 20.3263 33.5429C19.916 33.1327 19.6855 32.5763 19.6855 31.9961C19.6855 31.4159 19.916 30.8595 20.3263 30.4493C20.7365 30.0391 21.2929 29.8086 21.873 29.8086C22.4532 29.8086 23.0096 30.0391 23.4198 30.4493C23.8301 30.8595 24.0605 31.4159 24.0605 31.9961Z" fill="black"/>
</svg>
