<svg width="25" height="25" viewBox="0 0 25 25" fill="none" xmlns="http://www.w3.org/2000/svg">
<path d="M18.75 8.92857C19.6429 8.92857 19.6429 9.82143 19.6429 9.82143V10.7143C20.5357 10.7143 21.4286 10.7143 22.3214 11.6071L25 14.2857C25 14.2857 25 16.0714 23.2143 16.0714H20.5357L16.9643 13.3929L17.8571 9.82143C18.125 9 18.75 8.92857 18.75 8.92857ZM9.82143 10.7143C11.0357 10.6964 11.0357 12.5179 9.82143 12.5C9.82143 12.5 9.55357 12.5179 9.32143 12.625C9.08928 12.75 8.92857 12.8036 8.92857 13.3929V14.2857H15.1786L17.8571 16.0714C18.5179 16.5 19.6429 17.1607 19.6429 18.75V23.2143C19.6429 23.2143 20.5357 23.2143 20.5357 24.1071C20.5357 25 19.6429 25 19.6429 25H18.75C18.75 25 17.8571 25 17.25 23.1964L16.0714 19.6429H10.7143V24.1071C10.7143 24.1071 10.7143 25 9.82143 25C8.92857 25 8.92857 24.1071 8.92857 24.1071V20.8929C8.375 21.1786 7.76786 21.4286 7.14286 21.4286V24.1071C7.14286 24.1071 7.14286 25 6.25 25C5.35714 25 5.35714 24.1071 5.35714 24.1071V20.5357C5.35714 19.6429 6.25 19.6429 6.25 19.6429C7.14286 19.6429 7.14286 18.75 7.14286 16.9643V13.3929C7.14286 12.1964 7.875 11.3571 8.53571 11.0357C9.19643 10.6964 9.82143 10.7143 9.82143 10.7143ZM12.5 3.57143V8.03571C12.5 8.53571 12.1071 8.92857 11.6071 8.92857C11.1071 8.92857 10.7143 8.53571 10.7143 8.03571V3.57143H8.92857V8.03571C8.92857 8.53571 8.53571 8.92857 8.03571 8.92857C7.53571 8.92857 7.14286 8.53571 7.14286 8.03571V3.57143H5.35714V8.03571C5.35714 8.53571 4.96429 8.92857 4.46429 8.92857C3.96429 8.92857 3.57143 8.53571 3.57143 8.03571V3.57143H1.78571V8.03571C1.78571 8.53571 1.39286 8.92857 0.892857 8.92857C0.392857 8.92857 0 8.53571 0 8.03571V2.92857C0 2.21429 0.446429 1.55357 1.10714 1.28571C3.21429 0.428571 5.51786 0 8.03571 0C10.5536 0 12.8571 0.428571 14.9643 1.28571C15.625 1.55357 16.0714 2.21429 16.0714 2.92857V8.03571C16.0714 8.53571 15.6786 8.92857 15.1786 8.92857C14.6786 8.92857 14.2857 8.53571 14.2857 8.03571V3.57143H12.5Z" fill="black"/>
</svg>
