<svg width="25" height="24" viewBox="0 0 25 24" fill="none" xmlns="http://www.w3.org/2000/svg">
<path d="M7.9561 0.0198446C9.42508 -0.204416 10.9812 1.49733 11.4294 3.84547C11.8775 6.18042 11.0684 8.26473 9.59937 8.50218C8.14283 8.73963 6.57425 7.03789 6.11363 4.68975C5.65302 2.3548 6.48711 0.270489 7.9561 0.0198446ZM16.8572 0.0198446C18.3386 0.270489 19.1602 2.3548 18.7245 4.68975C18.2515 7.03789 16.6953 8.73963 15.2263 8.50218C13.7449 8.26473 12.9357 6.18042 13.3963 3.84547C13.8445 1.49733 15.4006 -0.204416 16.8572 0.0198446ZM1.29585 6.08808C2.71504 5.44168 4.64465 6.61575 5.65302 8.66048C6.59915 10.7448 6.27547 12.9346 4.86873 13.581C3.46199 14.2274 1.54483 13.0665 0.561355 10.9954C-0.42212 8.92432 -0.0735465 6.72129 1.29585 6.08808ZM23.7042 6.08808C25.0735 6.72129 25.4221 8.92432 24.4386 10.9954C23.4552 13.0665 21.538 14.2274 20.1313 13.581C18.7245 12.9346 18.4009 10.7448 19.347 8.66048C20.3554 6.61575 22.285 5.44168 23.7042 6.08808ZM21.6252 20.3089C21.675 21.5489 20.7786 22.9208 19.708 23.4353C17.4796 24.517 14.8404 22.2744 12.3631 22.2744C9.8857 22.2744 7.2216 24.6094 5.03057 23.4353C3.78566 22.7889 2.92668 21.074 3.08851 19.6493C3.3126 17.6837 5.54098 16.6283 6.86058 15.1904C8.61589 13.3304 9.8608 9.83455 12.3631 9.83455C14.8529 9.83455 16.1725 13.2776 17.8531 15.1904C19.2349 16.7998 21.538 18.1586 21.6252 20.3089Z" fill="#8A8A8A"/>
</svg>
