<svg width="25" height="25" viewBox="0 0 25 25" fill="none" xmlns="http://www.w3.org/2000/svg">
<path d="M17.3039 17.3076L11.6086 23.0071C10.3333 24.2833 8.60362 25.0002 6.80011 25.0002C4.9966 25.0002 3.26695 24.2833 1.99162 23.0071C0.716403 21.7309 0 19.9999 0 18.1951C0 16.3903 0.716403 14.6593 1.99162 13.3831L7.68694 7.68359L15.3894 9.98926L17.3039 17.3076Z" fill="#FCD53F"/>
<path d="M7.69629 7.69258L13.3916 1.99308C14.6669 0.716928 16.3966 0 18.2001 0C20.0036 0 21.7333 0.716928 23.0086 1.99308C24.2838 3.26935 25.0002 5.00027 25.0002 6.8051C25.0002 8.60993 24.2838 10.3408 23.0086 11.6171L17.3133 17.3166L7.69629 7.69258Z" fill="#F8312F"/>
<path d="M21.39 8.91932C21.8628 8.91932 22.3162 8.73138 22.6505 8.39683C22.9848 8.06229 23.1726 7.60856 23.1726 7.13544C23.1726 6.66233 22.9848 6.20859 22.6505 5.87405C22.3162 5.53951 21.8628 5.35156 21.39 5.35156C20.9172 5.35156 20.4638 5.53951 20.1295 5.87405C19.7952 6.20859 19.6074 6.66233 19.6074 7.13544C19.6074 7.60856 19.7952 8.06229 20.1295 8.39683C20.4638 8.73138 20.9172 8.91932 21.39 8.91932Z" fill="#F4F4F4"/>
</svg>
