<svg width="153" height="149" viewBox="0 0 153 149" fill="none" xmlns="http://www.w3.org/2000/svg">
<path fill-rule="evenodd" clip-rule="evenodd" d="M33.2089 2.32286C61.9815 -0.774287 91.0179 -0.774287 119.791 2.32286C135.721 4.0588 148.574 16.2556 150.443 31.7977C153.852 60.1694 153.852 88.8306 150.443 117.202C148.574 132.744 135.721 144.941 119.791 146.677C91.0179 149.774 61.9815 149.774 33.2089 146.677C17.2783 144.941 4.42588 132.744 2.55661 117.202C-0.852204 88.8336 -0.852204 60.1755 2.55661 31.8067C3.50211 24.256 7.04267 17.237 12.6045 11.8872C18.1663 6.53743 25.4234 3.17043 33.1996 2.3319M76.4997 29.3565C78.3496 29.3565 80.1237 30.0709 81.4317 31.3426C82.7398 32.6143 83.4746 34.3391 83.4746 36.1375V67.719H115.959C117.809 67.719 119.583 68.4334 120.891 69.7051C122.199 70.9768 122.934 72.7016 122.934 74.5C122.934 76.2984 122.199 78.0232 120.891 79.2949C119.583 80.5666 117.809 81.281 115.959 81.281H83.4746V112.862C83.4746 114.661 82.7398 116.386 81.4317 117.657C80.1237 118.929 78.3496 119.643 76.4997 119.643C74.6499 119.643 72.8758 118.929 71.5677 117.657C70.2597 116.386 69.5248 114.661 69.5248 112.862V81.281H37.0405C35.1906 81.281 33.4165 80.5666 32.1085 79.2949C30.8004 78.0232 30.0656 76.2984 30.0656 74.5C30.0656 72.7016 30.8004 70.9768 32.1085 69.7051C33.4165 68.4334 35.1906 67.719 37.0405 67.719H69.5248V36.1375C69.5248 34.3391 70.2597 32.6143 71.5677 31.3426C72.8758 30.0709 74.6499 29.3565 76.4997 29.3565Z" fill="#58B4AE"/>
</svg>
