<svg width="31" height="31" viewBox="0 0 31 31" fill="none" xmlns="http://www.w3.org/2000/svg">
<path d="M23.5769 0.5H7.42308C3.59957 0.5 0.5 3.59957 0.5 7.42308V23.5769C0.5 27.4004 3.59957 30.5 7.42308 30.5H23.5769C27.4004 30.5 30.5 27.4004 30.5 23.5769V7.42308C30.5 3.59957 27.4004 0.5 23.5769 0.5Z" stroke="black" stroke-linejoin="round"/>
<path d="M25.088 7.96796C23.3241 6.36123 20.1322 4.26123 15.501 4.26123C10.8697 4.26123 7.6779 6.36123 5.91396 7.96796C5.43476 8.40448 5.14388 9.0101 5.10271 9.65701C5.06154 10.3039 5.27329 10.9415 5.69329 11.4353L8.09617 14.2629C8.38828 14.6051 8.79342 14.8312 9.23803 14.9002C9.68264 14.9691 10.1372 14.8763 10.5193 14.6386C11.6673 13.9297 13.4695 13.0781 15.5024 13.0781C17.5354 13.0781 19.3375 13.9297 20.4856 14.6386C20.8676 14.8763 21.3222 14.9691 21.7668 14.9002C22.2114 14.8312 22.6166 14.6051 22.9087 14.2629L25.3087 11.4353C25.7287 10.9415 25.9404 10.3039 25.8993 9.65701C25.8581 9.0101 25.5672 8.40448 25.088 7.96796Z" stroke="black" stroke-linejoin="round"/>
</svg>
