<svg width="50" height="50" viewBox="0 0 50 50" fill="none" xmlns="http://www.w3.org/2000/svg">
<path d="M19.2708 45.8333L18.4375 39.1666C17.9861 38.993 17.5611 38.7847 17.1625 38.5416C16.7639 38.2986 16.3729 38.0382 15.9896 37.7604L9.79167 40.3645L4.0625 30.4687L9.42708 26.4062C9.39236 26.1632 9.375 25.9291 9.375 25.7041V24.2979C9.375 24.0715 9.39236 23.8368 9.42708 23.5937L4.0625 19.5312L9.79167 9.63538L15.9896 12.2395C16.3715 11.9618 16.7708 11.7013 17.1875 11.4583C17.6042 11.2152 18.0208 11.0069 18.4375 10.8333L19.2708 4.16663H30.7292L31.5625 10.8333C32.0139 11.0069 32.4396 11.2152 32.8396 11.4583C33.2396 11.7013 33.6299 11.9618 34.0104 12.2395L40.2083 9.63538L45.9375 19.5312L40.5729 23.5937C40.6076 23.8368 40.625 24.0715 40.625 24.2979V25.702C40.625 25.9284 40.5903 26.1632 40.5208 26.4062L45.8854 30.4687L40.1562 40.3645L34.0104 37.7604C33.6285 38.0382 33.2292 38.2986 32.8125 38.5416C32.3958 38.7847 31.9792 38.993 31.5625 39.1666L30.7292 45.8333H19.2708ZM22.9167 41.6666H27.0313L27.7604 36.1458C28.8368 35.868 29.8354 35.4604 30.7562 34.9229C31.6771 34.3854 32.5188 33.734 33.2813 32.9687L38.4375 35.1041L40.4687 31.5625L35.9896 28.177C36.1632 27.6909 36.2847 27.1791 36.3542 26.6416C36.4236 26.1041 36.4583 25.5569 36.4583 25C36.4583 24.443 36.4236 23.8965 36.3542 23.3604C36.2847 22.8243 36.1632 22.3118 35.9896 21.8229L40.4687 18.4375L38.4375 14.8958L33.2813 17.0833C32.5174 16.2847 31.6757 15.6166 30.7562 15.0791C29.8368 14.5416 28.8382 14.1333 27.7604 13.8541L27.0833 8.33329H22.9687L22.2396 13.8541C21.1632 14.1319 20.1653 14.5402 19.2458 15.0791C18.3264 15.618 17.484 16.2687 16.7187 17.0312L11.5625 14.8958L9.53125 18.4375L14.0104 21.7708C13.8368 22.2916 13.7153 22.8125 13.6458 23.3333C13.5764 23.8541 13.5417 24.4097 13.5417 25C13.5417 25.5555 13.5764 26.0937 13.6458 26.6145C13.7153 27.1354 13.8368 27.6562 14.0104 28.177L9.53125 31.5625L11.5625 35.1041L16.7187 32.9166C17.4826 33.7152 18.325 34.384 19.2458 34.9229C20.1667 35.4618 21.1646 35.8694 22.2396 36.1458L22.9167 41.6666ZM25.1042 32.2916C27.1181 32.2916 28.8368 31.5798 30.2604 30.1562C31.684 28.7326 32.3958 27.0138 32.3958 25C32.3958 22.9861 31.684 21.2673 30.2604 19.8437C28.8368 18.4201 27.1181 17.7083 25.1042 17.7083C23.0556 17.7083 21.3278 18.4201 19.9208 19.8437C18.5139 21.2673 17.8111 22.9861 17.8125 25C17.8139 27.0138 18.5174 28.7326 19.9229 30.1562C21.3285 31.5798 23.0556 32.2916 25.1042 32.2916Z" fill="#58B4AE"/>
</svg>
