<svg width="35" height="35" viewBox="0 0 35 35" fill="none" xmlns="http://www.w3.org/2000/svg">
<path d="M19.6878 32.0837C17.0628 32.0837 14.8267 31.16 12.9795 29.3128C11.1323 27.4656 10.2087 25.2295 10.2087 22.6045V21.7659C8.11838 21.4257 6.38053 20.4471 4.99512 18.8303C3.6097 17.2135 2.91699 15.3119 2.91699 13.1253V4.37533H7.29199V2.91699H10.2087V8.75033H7.29199V7.29199H5.83366V13.1253C5.83366 14.7295 6.40484 16.1028 7.5472 17.2451C8.68956 18.3875 10.0628 18.9587 11.667 18.9587C13.2712 18.9587 14.6444 18.3875 15.7868 17.2451C16.9291 16.1028 17.5003 14.7295 17.5003 13.1253V7.29199H16.042V8.75033H13.1253V2.91699H16.042V4.37533H20.417V13.1253C20.417 15.3128 19.7243 17.215 18.3389 18.8318C16.9534 20.4486 15.2156 21.4266 13.1253 21.7659V22.6045C13.1253 24.4274 13.7636 25.9771 15.0401 27.2537C16.3166 28.5302 17.8659 29.168 19.6878 29.167C21.5098 29.166 23.0595 28.5282 24.337 27.2537C25.6145 25.9791 26.2523 24.4294 26.2503 22.6045V20.1618C25.3996 19.8701 24.7011 19.3475 24.1547 18.5941C23.6083 17.8406 23.3346 16.9899 23.3337 16.042C23.3337 14.8267 23.759 13.7937 24.6097 12.943C25.4604 12.0923 26.4934 11.667 27.7087 11.667C28.9239 11.667 29.9569 12.0923 30.8076 12.943C31.6583 13.7937 32.0837 14.8267 32.0837 16.042C32.0837 16.9899 31.8105 17.8406 31.2641 18.5941C30.7177 19.3475 30.0187 19.8701 29.167 20.1618V22.6045C29.167 25.2295 28.2434 27.4656 26.3962 29.3128C24.5489 31.16 22.3128 32.0837 19.6878 32.0837Z" fill="black"/>
</svg>
